<?xml version="1.0" encoding="UTF-8"?>
<svg width="16px" height="16px" viewBox="0 0 16 16" version="1.1" xmlns="http://www.w3.org/2000/svg" xmlns:xlink="http://www.w3.org/1999/xlink">
    <!-- Generator: Sketch 47.1 (45422) - http://www.bohemiancoding.com/sketch -->
    <title>Shape</title>
    <desc>Created with Sketch.</desc>
    <defs></defs>
    <g id="Page-1" stroke="none" stroke-width="1" fill="none" fill-rule="evenodd">
        <path d="M12.2108317,11.1533318 C14.4908465,8.31170311 14.1519287,4.18347866 11.4389843,1.75176045 C8.72603985,-0.679957764 4.58547054,-0.566872791 2.00929887,2.00929887 C-0.566872791,4.58547054 -0.679957764,8.72603985 1.75176045,11.4389843 C4.18347866,14.1519287 8.31170311,14.4908465 11.1533318,12.2108317 L14.9499298,16.0024766 L16,14.9524064 L12.2108317,11.1533318 Z M3.04748361,10.6580157 C1.50728247,9.11831569 1.04632177,6.80238679 1.87957333,4.79027658 C2.7128249,2.77816637 4.67616893,1.46618631 6.85398795,1.46618631 C9.03180696,1.46618631 10.995151,2.77816637 11.8284026,4.79027658 C12.6616541,6.80238679 12.2006934,9.11831569 10.6604923,10.6580157 C8.55688794,12.7570765 5.15108795,12.7570765 3.04748361,10.6580157 L3.04748361,10.6580157 Z" id="Shape" fill="#DDDDDD" fill-rule="nonzero"></path>
    </g>
</svg>